<?xml version="1.0" standalone="no"?>
<!DOCTYPE svg PUBLIC "-//W3C//DTD SVG 20010904//EN"
 "http://www.w3.org/TR/2001/REC-SVG-20010904/DTD/svg10.dtd">
<svg version="1.0" xmlns="http://www.w3.org/2000/svg"
 width="220.000000pt" height="220.000000pt" viewBox="0 0 220.000000 220.000000"
 preserveAspectRatio="xMidYMid meet">
<metadata>
Created by potrace 1.14, written by Peter Selinger 2001-2017
</metadata>
<g transform="translate(0.000000,220.000000) scale(0.100000,-0.100000)"
fill="#000000" stroke="none">
<path d="M1018 2175 c-2 -2 -30 -6 -63 -9 -391 -43 -747 -326 -884 -702 -87
-238 -87 -499 -2 -733 116 -319 367 -558 696 -666 44 -14 96 -28 115 -31 19
-3 43 -8 54 -11 10 -3 73 -7 140 -8 381 -10 740 143 927 395 27 36 53 70 58
76 26 32 91 181 107 249 28 114 37 308 20 420 -62 414 -352 794 -725 950 -36
15 -72 28 -80 30 -9 2 -47 11 -86 20 -57 14 -268 28 -277 20z"/>
</g>
</svg>
